<svg width="65" height="64" viewBox="0 0 65 64" fill="none" xmlns="http://www.w3.org/2000/svg">
<path fill-rule="evenodd" clip-rule="evenodd" d="M43.1668 4C43.9032 4 44.5002 4.59695 44.5002 5.33333V16C44.5002 16.7364 43.9032 17.3333 43.1668 17.3333C42.4305 17.3333 41.8335 16.7364 41.8335 16V5.33333C41.8335 4.59695 42.4305 4 43.1668 4Z" fill="#F0F3F5"/>
<path fill-rule="evenodd" clip-rule="evenodd" d="M21.8333 4C22.5697 4 23.1667 4.59695 23.1667 5.33333V16C23.1667 16.7364 22.5697 17.3333 21.8333 17.3333C21.097 17.3333 20.5 16.7364 20.5 16V5.33333C20.5 4.59695 21.097 4 21.8333 4Z" fill="#F0F3F5"/>
<path fill-rule="evenodd" clip-rule="evenodd" d="M7.1665 23.9998C7.1665 23.2635 7.76346 22.6665 8.49984 22.6665H56.4998C57.2362 22.6665 57.8332 23.2635 57.8332 23.9998C57.8332 24.7362 57.2362 25.3332 56.4998 25.3332H8.49984C7.76346 25.3332 7.1665 24.7362 7.1665 23.9998Z" fill="#F0F3F5"/>
<path fill-rule="evenodd" clip-rule="evenodd" d="M7.1665 16.0002C7.1665 12.3171 10.1501 9.3335 13.8332 9.3335H51.1665C54.8495 9.3335 57.8332 12.3171 57.8332 16.0002V50.6668C57.8332 54.3499 54.8495 57.3335 51.1665 57.3335H13.8332C10.1501 57.3335 7.1665 54.3499 7.1665 50.6668V16.0002ZM13.8332 12.0002C11.6229 12.0002 9.83317 13.7899 9.83317 16.0002V50.6668C9.83317 52.8771 11.6229 54.6668 13.8332 54.6668H51.1665C53.3768 54.6668 55.1665 52.8771 55.1665 50.6668V16.0002C55.1665 13.7899 53.3768 12.0002 51.1665 12.0002H13.8332Z" fill="#F0F3F5"/>
<path fill-rule="evenodd" clip-rule="evenodd" d="M21.5 34.5C21.5 35.8807 20.3807 37 19 37C17.6193 37 16.5 35.8807 16.5 34.5C16.5 33.1193 17.6193 32 19 32C20.3807 32 21.5 33.1193 21.5 34.5ZM35.5 34.5C35.5 35.8807 34.3807 37 33 37C31.6193 37 30.5 35.8807 30.5 34.5C30.5 33.1193 31.6193 32 33 32C34.3807 32 35.5 33.1193 35.5 34.5ZM46 37C47.3807 37 48.5 35.8807 48.5 34.5C48.5 33.1193 47.3807 32 46 32C44.6193 32 43.5 33.1193 43.5 34.5C43.5 35.8807 44.6193 37 46 37ZM35.5 45.5C35.5 46.8807 34.3807 48 33 48C31.6193 48 30.5 46.8807 30.5 45.5C30.5 44.1193 31.6193 43 33 43C34.3807 43 35.5 44.1193 35.5 45.5ZM19 48C20.3807 48 21.5 46.8807 21.5 45.5C21.5 44.1193 20.3807 43 19 43C17.6193 43 16.5 44.1193 16.5 45.5C16.5 46.8807 17.6193 48 19 48Z" fill="url(#paint0_linear_217_966)"/>
<defs>
<linearGradient id="paint0_linear_217_966" x1="32.5" y1="32" x2="32.5" y2="48" gradientUnits="userSpaceOnUse">
<stop stop-color="#5CDEFF"/>
<stop offset="1" stop-color="#0096BF"/>
</linearGradient>
</defs>
</svg>
