<svg width="65" height="65" viewBox="0 0 65 65" fill="none" xmlns="http://www.w3.org/2000/svg">
<path fill-rule="evenodd" clip-rule="evenodd" d="M38.0731 7.5933C43.8188 11.423 47.3072 17.8397 47.3966 24.745C47.3969 24.7646 47.3967 24.7843 47.3961 24.804C47.1598 32.5066 41.0988 38.7633 33.4076 39.2441C25.7164 39.725 18.9234 34.272 17.7295 26.6588L17.7237 26.6217L17.7242 26.6216C17.0328 21.2406 19.4364 15.93 23.9354 12.8983C23.9514 12.8875 23.9675 12.8771 23.9839 12.8671C24.8773 12.3189 25.9734 12.2131 26.9551 12.5803C27.924 12.9427 28.6747 13.7259 28.9963 14.7076C29.3194 15.5664 29.7684 16.3688 30.3261 17.0896C31.0522 15.5177 31.3092 13.7558 31.0456 12.02C30.7489 10.2297 31.5555 8.43563 33.0925 7.46956C34.627 6.50509 36.5895 6.55453 38.0731 7.5933ZM36.5265 9.81664C35.9341 9.39786 35.1479 9.37654 34.5337 9.76259C33.9195 10.1486 33.5978 10.8663 33.7183 11.5816L33.7217 11.6018L33.7215 11.6018C34.18 14.6008 33.4465 17.66 31.6781 20.1251C31.4543 20.437 31.1085 20.6393 30.7269 20.6816C30.3453 20.7239 29.9637 20.6022 29.677 20.3468C28.232 19.0596 27.1235 17.4388 26.4479 15.6253C26.4398 15.6033 26.4321 15.5811 26.4251 15.5587C26.361 15.3548 26.2065 15.1918 26.0063 15.117C25.813 15.0447 25.5979 15.0623 25.4193 15.1643C21.794 17.6234 19.8567 21.911 20.4081 26.2578C21.3935 32.48 26.9492 36.9343 33.2386 36.5411C39.5246 36.1481 44.4802 31.0419 44.6881 24.7503C44.6006 18.7444 41.56 13.1662 36.5581 9.83831L36.5265 9.81664Z" fill="url(#paint0_linear_213_789)"/>
<path fill-rule="evenodd" clip-rule="evenodd" d="M58.1522 40.1739C58.4011 40.8791 58.0311 41.6526 57.3259 41.9015L11.2842 58.1515C10.579 58.4004 9.80548 58.0305 9.55657 57.3253C9.30766 56.62 9.6776 55.8465 10.3828 55.5976L56.4245 39.3476C57.1298 39.0987 57.9033 39.4686 58.1522 40.1739Z" fill="#F0F3F5"/>
<path fill-rule="evenodd" clip-rule="evenodd" d="M9.55657 40.1739C9.80548 39.4686 10.579 39.0987 11.2842 39.3476L22.1176 43.1711C22.8228 43.42 23.1927 44.1935 22.9438 44.8987C22.6949 45.604 21.9214 45.9739 21.2162 45.725L10.3829 41.9015C9.6776 41.6526 9.30766 40.8791 9.55657 40.1739Z" fill="#F0F3F5"/>
<path fill-rule="evenodd" clip-rule="evenodd" d="M44.7651 52.6011C45.014 51.8959 45.7875 51.5259 46.4927 51.7748L57.3261 55.5983C58.0313 55.8472 58.4012 56.6207 58.1523 57.326C57.9034 58.0312 57.1299 58.4011 56.4247 58.1522L45.5913 54.3288C44.8861 54.0799 44.5162 53.3064 44.7651 52.6011Z" fill="#F0F3F5"/>
<defs>
<linearGradient id="paint0_linear_213_789" x1="32.5018" y1="6.77881" x2="32.5018" y2="39.2736" gradientUnits="userSpaceOnUse">
<stop stop-color="#5CDEFF"/>
<stop offset="1" stop-color="#0096BF"/>
</linearGradient>
</defs>
</svg>
