<svg width="65" height="64" viewBox="0 0 65 64" fill="none" xmlns="http://www.w3.org/2000/svg">
<path fill-rule="evenodd" clip-rule="evenodd" d="M7.16699 13.3332C7.16699 9.65012 10.1506 6.6665 13.8337 6.6665H16.5003C17.2367 6.6665 17.8337 7.26346 17.8337 7.99984C17.8337 8.73622 17.2367 9.33317 16.5003 9.33317H13.8337C11.6234 9.33317 9.83366 11.1229 9.83366 13.3332V15.9998C9.83366 16.7362 9.23671 17.3332 8.50033 17.3332C7.76395 17.3332 7.16699 16.7362 7.16699 15.9998V13.3332Z" fill="#F0F3F5"/>
<path fill-rule="evenodd" clip-rule="evenodd" d="M56.5003 46.6665C57.2367 46.6665 57.8337 47.2635 57.8337 47.9998V50.6665C57.8337 54.3495 54.85 57.3332 51.167 57.3332H48.5003C47.7639 57.3332 47.167 56.7362 47.167 55.9998C47.167 55.2635 47.7639 54.6665 48.5003 54.6665H51.167C53.3773 54.6665 55.167 52.8768 55.167 50.6665V47.9998C55.167 47.2635 55.7639 46.6665 56.5003 46.6665Z" fill="#F0F3F5"/>
<path fill-rule="evenodd" clip-rule="evenodd" d="M8.50033 46.6665C9.23671 46.6665 9.83366 47.2635 9.83366 47.9998V50.6665C9.83366 52.8768 11.6234 54.6665 13.8337 54.6665H16.5003C17.2367 54.6665 17.8337 55.2635 17.8337 55.9998C17.8337 56.7362 17.2367 57.3332 16.5003 57.3332H13.8337C10.1506 57.3332 7.16699 54.3495 7.16699 50.6665V47.9998C7.16699 47.2635 7.76395 46.6665 8.50033 46.6665Z" fill="#F0F3F5"/>
<path fill-rule="evenodd" clip-rule="evenodd" d="M47.167 7.99984C47.167 7.26346 47.7639 6.6665 48.5003 6.6665H51.167C54.85 6.6665 57.8337 9.65012 57.8337 13.3332V15.9998C57.8337 16.7362 57.2367 17.3332 56.5003 17.3332C55.7639 17.3332 55.167 16.7362 55.167 15.9998V13.3332C55.167 11.1229 53.3773 9.33317 51.167 9.33317H48.5003C47.7639 9.33317 47.167 8.73622 47.167 7.99984Z" fill="#F0F3F5"/>
<path d="M36.3938 45.3368H29.3538C28.0738 45.3368 26.9271 44.7502 26.1538 43.7368C25.3804 42.7235 25.1671 41.4435 25.5138 40.2435L27.4604 33.4435C25.5671 31.7902 24.5004 29.4968 24.5004 27.0702C24.4738 24.4568 25.6738 22.0302 27.7271 20.4302C29.8071 18.8035 32.5004 18.2702 35.0871 18.9635C37.9138 19.6835 40.2071 22.0035 40.9538 24.8035C41.7804 27.9768 40.7938 31.2835 38.3404 33.3902C38.3404 33.3902 38.2871 33.4435 38.2871 33.4702L40.2338 40.2435C40.5804 41.4702 40.3404 42.7502 39.5671 43.7635C38.7938 44.7768 37.6471 45.3635 36.3671 45.3635L36.3938 45.3368ZM32.8738 21.3368C31.5938 21.3368 30.3671 21.7368 29.3538 22.5368C27.9404 23.6302 27.1138 25.2835 27.1138 27.0702C27.1138 28.7235 27.8338 30.2968 29.0871 31.3902C29.9138 32.1102 30.2604 33.1768 29.9671 34.1902L28.0204 40.9902C27.9138 41.3902 27.9938 41.8168 28.2338 42.1635C28.4738 42.5102 28.8738 42.6968 29.3004 42.6968H36.3404C36.7671 42.6968 37.1404 42.5102 37.4071 42.1635C37.6738 41.8168 37.7538 41.3902 37.6204 40.9902L35.6738 34.1902C35.3804 33.1768 35.7271 32.1102 36.5538 31.3902C38.2604 29.9235 38.9271 27.7102 38.3404 25.4968C37.8338 23.6035 36.2871 22.0568 34.3938 21.5502C33.8871 21.4168 33.3538 21.3635 32.8471 21.3635L32.8738 21.3368Z" fill="url(#paint0_linear_309_568)"/>
<defs>
<linearGradient id="paint0_linear_309_568" x1="32.8703" y1="18.6665" x2="32.8703" y2="45.3635" gradientUnits="userSpaceOnUse">
<stop stop-color="#5CDEFF"/>
<stop offset="1" stop-color="#0096BF"/>
</linearGradient>
</defs>
</svg>
