<svg width="64" height="64" viewBox="0 0 64 64" fill="none" xmlns="http://www.w3.org/2000/svg">
<path fill-rule="evenodd" clip-rule="evenodd" d="M52.7034 11.2972C50.0853 8.67914 45.8406 8.67914 43.2225 11.2972C40.6044 13.9153 40.6044 18.16 43.2225 20.7781C45.8406 23.3962 50.0853 23.3962 52.7034 20.7781C55.3215 18.16 55.3215 13.9153 52.7034 11.2972ZM54.589 9.4116C50.9295 5.75212 44.9964 5.75212 41.3369 9.4116C37.6774 13.0711 37.6774 19.0042 41.3369 22.6637C44.9964 26.3232 50.9295 26.3232 54.589 22.6637C58.2485 19.0042 58.2485 13.0711 54.589 9.4116Z" fill="url(#paint0_linear_309_578)"/>
<path fill-rule="evenodd" clip-rule="evenodd" d="M13.3332 14.6667C11.1229 14.6667 9.33317 16.4564 9.33317 18.6667V50.6667C9.33317 52.8769 11.1229 54.6667 13.3332 54.6667H45.3332C47.5435 54.6667 49.3332 52.8769 49.3332 50.6667V34.6667C49.3332 33.9303 49.9301 33.3333 50.6665 33.3333C51.4029 33.3333 51.9998 33.9303 51.9998 34.6667V50.6667C51.9998 54.3497 49.0162 57.3333 45.3332 57.3333H13.3332C9.65012 57.3333 6.6665 54.3497 6.6665 50.6667V18.6667C6.6665 14.9836 9.65012 12 13.3332 12H29.3332C30.0695 12 30.6665 12.597 30.6665 13.3333C30.6665 14.0697 30.0695 14.6667 29.3332 14.6667H13.3332Z" fill="#F0F3F5"/>
<path fill-rule="evenodd" clip-rule="evenodd" d="M17.3335 45.3333C17.3335 44.597 17.9304 44 18.6668 44H40.0002C40.7365 44 41.3335 44.597 41.3335 45.3333C41.3335 46.0697 40.7365 46.6667 40.0002 46.6667H18.6668C17.9304 46.6667 17.3335 46.0697 17.3335 45.3333Z" fill="#F0F3F5"/>
<path fill-rule="evenodd" clip-rule="evenodd" d="M17.3335 34.6668C17.3335 33.9305 17.9304 33.3335 18.6668 33.3335H40.0002C40.7365 33.3335 41.3335 33.9305 41.3335 34.6668C41.3335 35.4032 40.7365 36.0002 40.0002 36.0002H18.6668C17.9304 36.0002 17.3335 35.4032 17.3335 34.6668Z" fill="#F0F3F5"/>
<path fill-rule="evenodd" clip-rule="evenodd" d="M17.3335 23.9998C17.3335 23.2635 17.9304 22.6665 18.6668 22.6665H29.3335C30.0699 22.6665 30.6668 23.2635 30.6668 23.9998C30.6668 24.7362 30.0699 25.3332 29.3335 25.3332H18.6668C17.9304 25.3332 17.3335 24.7362 17.3335 23.9998Z" fill="#F0F3F5"/>
<defs>
<linearGradient id="paint0_linear_309_578" x1="47.9629" y1="6.66699" x2="47.9629" y2="25.4083" gradientUnits="userSpaceOnUse">
<stop stop-color="#5CDEFF"/>
<stop offset="1" stop-color="#0096BF"/>
</linearGradient>
</defs>
</svg>
