<svg width="64" height="64" viewBox="0 0 64 64" fill="none" xmlns="http://www.w3.org/2000/svg">
<path fill-rule="evenodd" clip-rule="evenodd" d="M20.0002 30.6668C20.0002 29.9304 19.4032 29.3335 18.6668 29.3335C17.9304 29.3335 17.3335 29.9304 17.3335 30.6668V32.0002C17.3335 32.7365 17.9304 33.3335 18.6668 33.3335C19.4032 33.3335 20.0002 32.7365 20.0002 32.0002V30.6668ZM18.6669 38C19.4033 38.0001 20.0001 38.5972 19.9999 39.3336L19.9997 40.6669C19.9995 41.4033 19.4025 42.0001 18.6661 42C17.9297 41.9999 17.3329 41.4028 17.333 40.6664L17.3333 39.3331C17.3334 38.5967 17.9305 37.9999 18.6669 38ZM18.6668 46.667C19.4032 46.667 20.0002 47.2639 20.0002 48.0003V49.3337C20.0002 50.07 19.4032 50.667 18.6668 50.667C17.9304 50.667 17.3335 50.07 17.3335 49.3337V48.0003C17.3335 47.2639 17.9304 46.667 18.6668 46.667Z" fill="#5CDEFF"/>
<path fill-rule="evenodd" clip-rule="evenodd" d="M17.3335 14.6665C17.3335 10.2482 20.9152 6.6665 25.3335 6.6665H52.0002C56.4184 6.6665 60.0002 10.2482 60.0002 14.6665V33.3332C60.0002 37.7514 56.4184 41.3332 52.0002 41.3332H48.0002C47.2638 41.3332 46.6668 40.7362 46.6668 39.9998C46.6668 39.2635 47.2638 38.6665 48.0002 38.6665H52.0002C54.9457 38.6665 57.3335 36.2787 57.3335 33.3332V14.6665C57.3335 11.721 54.9457 9.33317 52.0002 9.33317H25.3335C22.388 9.33317 20.0002 11.721 20.0002 14.6665V23.9998C20.0002 24.7362 19.4032 25.3332 18.6668 25.3332C17.9304 25.3332 17.3335 24.7362 17.3335 23.9998V14.6665Z" fill="url(#paint0_linear_309_557)"/>
<path fill-rule="evenodd" clip-rule="evenodd" d="M49.3335 49.3335C49.3335 53.7518 45.7518 57.3335 41.3335 57.3335L14.6668 57.3335C10.2486 57.3335 6.66683 53.7518 6.66683 49.3335V30.6668C6.66683 26.2486 10.2486 22.6668 14.6668 22.6668L41.3335 22.6668C45.7518 22.6668 49.3335 26.2486 49.3335 30.6668V49.3335ZM41.3335 54.6668C44.279 54.6668 46.6668 52.279 46.6668 49.3335V30.6668C46.6668 27.7213 44.279 25.3335 41.3335 25.3335L14.6668 25.3335C11.7213 25.3335 9.3335 27.7213 9.3335 30.6668V49.3335C9.3335 52.279 11.7213 54.6668 14.6668 54.6668L41.3335 54.6668Z" fill="#F0F3F5"/>
<defs>
<linearGradient id="paint0_linear_309_557" x1="38.6668" y1="6.6665" x2="38.6668" y2="41.3332" gradientUnits="userSpaceOnUse">
<stop stop-color="#5CDEFF"/>
<stop offset="1" stop-color="#0096BF"/>
</linearGradient>
</defs>
</svg>
