<svg width="65" height="64" viewBox="0 0 65 64" fill="none" xmlns="http://www.w3.org/2000/svg">
<path fill-rule="evenodd" clip-rule="evenodd" d="M32.5001 9.32341C19.9761 9.32341 9.8234 19.4761 9.8234 32.0001C9.8234 44.524 19.9761 54.6767 32.5001 54.6767C33.3364 54.6767 34.1725 54.6245 35.0038 54.5215C35.7346 54.4309 36.4004 54.9498 36.491 55.6806C36.5817 56.4114 36.0627 57.0773 35.3319 57.1679C34.3931 57.2843 33.4474 57.3434 32.5001 57.3434C18.5033 57.3434 7.15674 45.9968 7.15674 32.0001C7.15674 18.0033 18.5033 6.65674 32.5001 6.65674C46.4968 6.65674 57.8434 18.0033 57.8434 32.0001C57.8434 32.9474 57.7843 33.8931 57.6679 34.8319C57.5773 35.5627 56.9114 36.0817 56.1806 35.9911C55.4498 35.9004 54.9309 35.2346 55.0215 34.5038C55.1245 33.6725 55.1767 32.8364 55.1767 32.0001C55.1767 19.4761 45.024 9.32341 32.5001 9.32341Z" fill="url(#paint0_linear_217_861)"/>
<path fill-rule="evenodd" clip-rule="evenodd" d="M54.7851 44.3959C55.3058 44.9166 55.3058 45.7608 54.7851 46.2815L48.1157 52.951C47.8657 53.201 47.5265 53.3415 47.1729 53.3415C46.8193 53.3415 46.4801 53.201 46.2301 52.951L42.2284 48.9493C41.7077 48.4286 41.7077 47.5844 42.2284 47.0637C42.7491 46.543 43.5933 46.543 44.114 47.0637L47.1729 50.1225L52.8995 44.3959C53.4202 43.8752 54.2644 43.8752 54.7851 44.3959Z" fill="#5CDEFF"/>
<path fill-rule="evenodd" clip-rule="evenodd" d="M33.5376 29.5214C33.5376 28.7254 34.1829 28.0801 34.9789 28.0801C35.7749 28.0801 36.4202 28.7254 36.4202 29.5214C36.4202 30.3174 35.7749 30.9627 34.9789 30.9627C34.1829 30.9627 33.5376 30.3174 33.5376 29.5214Z" fill="#F0F3F5"/>
<path d="M25.3532 45.3603H22.8465C21.8598 45.3603 20.9265 44.987 20.2332 44.267C19.5398 43.5736 19.1665 42.6403 19.1665 41.6536V39.147C19.1665 38.1603 19.5398 37.2536 20.2332 36.5336L24.7665 32.0003C23.6732 27.787 25.2465 23.3603 28.7932 20.7203C32.5798 17.947 37.6465 17.9203 41.4332 20.667C45.2198 23.4136 46.7665 28.267 45.2998 32.7203C43.8065 37.1736 39.6998 40.0536 34.9798 40.027C34.1532 40.027 33.2998 39.9203 32.4998 39.707L27.9932 44.2136C27.2998 44.907 26.3665 45.307 25.3798 45.307L25.3532 45.3603ZM35.1398 21.3336C33.4598 21.3336 31.8065 21.867 30.3665 22.907C27.5398 24.987 26.3932 28.6403 27.5398 31.9736C27.6998 32.4536 27.5932 32.987 27.2198 33.3336L22.1265 38.427C21.9398 38.6136 21.8332 38.8803 21.8332 39.147V41.627C21.8332 41.8936 21.9398 42.1603 22.1265 42.347C22.3132 42.5336 22.5798 42.6403 22.8465 42.6403H25.3532C25.6198 42.6403 25.8865 42.5336 26.0732 42.347L31.1398 37.2536C31.5132 36.8803 32.0465 36.7736 32.5265 36.9336C33.3265 37.2003 34.1532 37.3603 34.9798 37.3603C38.4732 37.3603 41.6198 35.2003 42.7398 31.867C43.8598 28.5336 42.6865 24.8803 39.8598 22.827C38.4465 21.787 36.7932 21.2803 35.1398 21.2803V21.3336Z" fill="#F0F3F5"/>
<defs>
<linearGradient id="paint0_linear_217_861" x1="32.5001" y1="6.65674" x2="32.5001" y2="57.3434" gradientUnits="userSpaceOnUse">
<stop stop-color="#5CDEFF"/>
<stop offset="1" stop-color="#0096BF"/>
</linearGradient>
</defs>
</svg>
