<svg width="20" height="17" viewBox="0 0 20 17" fill="none" xmlns="http://www.w3.org/2000/svg">
<path d="M17.95 5.34998C17.95 4.93576 17.6142 4.59998 17.2 4.59998C16.7858 4.59998 16.45 4.93576 16.45 5.34998H17.95ZM1.60565 12.1076C1.36134 11.7731 0.89213 11.7 0.557638 11.9443C0.223145 12.1886 0.150037 12.6578 0.394347 12.9923L1.60565 12.1076ZM0.87257 11.8109C0.464379 11.8813 0.190527 12.2692 0.260905 12.6774C0.331283 13.0856 0.719239 13.3594 1.12743 13.2891L0.87257 11.8109ZM3.7 11.65L3.93829 12.3611C4.18386 12.2788 4.36961 12.0757 4.4296 11.8237C4.4896 11.5718 4.41535 11.3067 4.23322 11.1225L3.7 11.65ZM2.8 0.849976L3.46058 0.494822C3.33797 0.266762 3.10639 0.118079 2.84798 0.101512C2.58958 0.0849457 2.34091 0.202839 2.19018 0.413375L2.8 0.849976ZM8.2 5.34998L8.02288 6.07876C8.24223 6.13207 8.47393 6.08375 8.65369 5.94719C8.83344 5.81064 8.94213 5.60039 8.94959 5.37477L8.2 5.34998ZM16.3 2.64998L15.6738 3.06275C15.8126 3.27327 16.0479 3.39998 16.3 3.39998V2.64998ZM19 2.64998L19.624 3.066C19.7775 2.83586 19.7918 2.53995 19.6613 2.29608C19.5307 2.05221 19.2766 1.89998 19 1.89998V2.64998ZM16.576 4.93395C16.3462 5.2786 16.4393 5.74425 16.784 5.97401C17.1286 6.20378 17.5943 6.11065 17.824 5.766L16.576 4.93395ZM16.45 5.34998C16.45 8.36194 15.5901 10.871 14.0501 12.6163C12.5204 14.3499 10.2593 15.4 7.3 15.4V16.9C10.6407 16.9 13.3296 15.7 15.1749 13.6087C17.0099 11.529 17.95 8.63801 17.95 5.34998H16.45ZM7.3 15.4C5.64458 15.4 4.5374 14.9724 3.70459 14.3831C2.84887 13.7776 2.23772 12.973 1.60565 12.1076L0.394347 12.9923C1.01928 13.848 1.75813 14.8433 2.83816 15.6076C3.9411 16.388 5.35542 16.9 7.3 16.9V15.4ZM1.12743 13.2891C1.15119 13.285 1.16958 13.2806 1.17593 13.2791C1.18458 13.277 1.19158 13.2751 1.19578 13.274C1.20418 13.2717 1.21102 13.2698 1.21457 13.2687C1.22212 13.2665 1.229 13.2644 1.23345 13.263C1.24301 13.26 1.25419 13.2564 1.26552 13.2528C1.28875 13.2453 1.32054 13.2349 1.35881 13.2223C1.43573 13.197 1.54331 13.1613 1.67073 13.1189C1.92579 13.0341 2.26283 12.9216 2.5986 12.8094C2.93446 12.6972 3.26937 12.5851 3.5203 12.5011C3.64577 12.4591 3.75026 12.4241 3.82338 12.3996C3.85994 12.3874 3.88866 12.3777 3.90825 12.3712C3.91804 12.3679 3.92555 12.3654 3.93061 12.3637C3.93314 12.3628 3.93506 12.3622 3.93634 12.3618C3.93699 12.3616 3.93747 12.3614 3.9378 12.3613C3.93796 12.3612 3.93808 12.3612 3.93816 12.3612C3.93821 12.3611 3.93824 12.3611 3.93826 12.3611C3.93828 12.3611 3.93829 12.3611 3.7 11.65C3.46171 10.9388 3.4617 10.9388 3.46168 10.9388C3.46166 10.9389 3.46163 10.9389 3.46159 10.9389C3.46151 10.9389 3.46139 10.9389 3.46123 10.939C3.46091 10.9391 3.46042 10.9393 3.45978 10.9395C3.4585 10.9399 3.45659 10.9406 3.45407 10.9414C3.44902 10.9431 3.44152 10.9456 3.43175 10.9489C3.41219 10.9554 3.3835 10.965 3.34697 10.9773C3.2739 11.0017 3.16949 11.0367 3.0441 11.0787C2.79331 11.1627 2.45867 11.2746 2.12315 11.3868C1.78755 11.4989 1.4514 11.6111 1.19749 11.6955C1.07042 11.7378 0.964575 11.7729 0.889871 11.7975C0.852328 11.8098 0.82377 11.8192 0.804687 11.8253C0.794858 11.8285 0.789388 11.8302 0.787146 11.8309C0.785692 11.8314 0.787872 11.8307 0.791976 11.8295C0.793806 11.8289 0.799235 11.8274 0.806541 11.8254C0.810195 11.8244 0.816726 11.8227 0.824991 11.8207C0.830954 11.8193 0.849037 11.8149 0.87257 11.8109L1.12743 13.2891ZM4.23322 11.1225C1.48941 8.34862 1.28417 4.25557 3.40982 1.28658L2.19018 0.413375C-0.352168 3.96438 -0.101407 8.87333 3.16678 12.1774L4.23322 11.1225ZM2.13942 1.20513C3.31949 3.40005 5.53919 5.47513 8.02288 6.07876L8.37712 4.62119C6.40881 4.14282 4.49451 2.4179 3.46058 0.494822L2.13942 1.20513ZM8.94959 5.37477C8.98716 4.23878 9.38797 3.29965 10.0242 2.64954C10.6563 2.00352 11.5621 1.59998 12.7 1.59998V0.0999756C11.1869 0.0999756 9.88565 0.646429 8.95209 1.60041C8.02253 2.5503 7.49883 3.86117 7.45041 5.32518L8.94959 5.37477ZM12.7 1.59998C13.5057 1.59998 14.0959 1.75288 14.5489 1.99465C15.0003 2.23555 15.3617 2.58933 15.6738 3.06275L16.9262 2.2372C16.5053 1.59862 15.9692 1.05241 15.2551 0.671305C14.5426 0.291067 13.6993 0.0999756 12.7 0.0999756V1.59998ZM16.3 3.39998H19V1.89998H16.3V3.39998ZM18.376 2.23395L16.576 4.93395L17.824 5.766L19.624 3.066L18.376 2.23395Z" fill="#0096BF"/>
</svg>
